<?xml version="1.0" standalone="no"?>
<!DOCTYPE svg PUBLIC "-//W3C//DTD SVG 20010904//EN"
 "http://www.w3.org/TR/2001/REC-SVG-20010904/DTD/svg10.dtd">
<svg version="1.0" xmlns="http://www.w3.org/2000/svg"
 width="1000.000000pt" height="1000.000000pt" viewBox="0 0 1000.000000 1000.000000"
 preserveAspectRatio="xMidYMid meet">
<metadata>
Created by potrace 1.11, written by Peter Selinger 2001-2013
</metadata>
<g transform="translate(0.000000,1000.000000) scale(0.100000,-0.100000)"
fill="#000000" stroke="none">
<path d="M4690 9489 c-761 -52 -1512 -305 -2154 -726 -1791 -1175 -2504 -3432
-1716 -5428 330 -835 922 -1567 1675 -2070 206 -137 320 -203 530 -307 1237
-608 2713 -608 3950 0 210 104 324 170 530 307 929 621 1589 1562 1860 2650
96 386 129 661 129 1085 0 327 -12 480 -59 758 -205 1209 -908 2294 -1930
2977 -206 137 -320 203 -530 307 -699 344 -1497 500 -2285 447z m381 -3207
l1584 -989 0 -292 0 -292 -1130 -706 c-621 -388 -1336 -833 -1587 -990 l-457
-285 -81 43 -80 43 2 315 3 314 1282 776 c706 427 1282 779 1280 783 -1 4
-578 356 -1282 782 l-1280 775 -3 313 -2 314 72 41 c40 23 78 42 84 42 6 1
724 -444 1595 -987z"/>
</g>
</svg>
