<?xml version="1.0" standalone="no"?>
<!DOCTYPE svg PUBLIC "-//W3C//DTD SVG 20010904//EN"
 "http://www.w3.org/TR/2001/REC-SVG-20010904/DTD/svg10.dtd">
<svg version="1.0" xmlns="http://www.w3.org/2000/svg"
 width="1000.000000pt" height="1000.000000pt" viewBox="0 0 1000.000000 1000.000000"
 preserveAspectRatio="xMidYMid meet">
<metadata>
Created by potrace 1.11, written by Peter Selinger 2001-2013
</metadata>
<g transform="translate(0.000000,1000.000000) scale(0.100000,-0.100000)"
fill="#000000" stroke="none">
<path d="M4685 9490 c-811 -64 -1538 -316 -2208 -764 -951 -637 -1639 -1659
-1877 -2786 -72 -338 -94 -562 -94 -940 0 -306 7 -414 44 -665 173 -1172 812
-2236 1771 -2950 460 -343 1032 -614 1579 -749 1553 -383 3157 60 4280 1184
688 687 1130 1562 1270 2515 37 251 44 359 44 665 0 306 -7 414 -44 665 -168
1142 -776 2179 -1696 2893 -236 183 -467 328 -754 471 -479 238 -948 377
-1495 442 -194 23 -639 33 -820 19z m385 -3209 l1585 -989 3 -289 2 -290
-1589 -992 -1590 -992 -43 22 c-24 12 -60 33 -81 46 l-37 23 2 311 3 311 1283
776 c705 427 1282 780 1282 783 0 3 -578 356 -1285 784 l-1285 778 0 311 0
311 73 42 c39 22 77 41 82 42 6 1 724 -444 1595 -988z"/>
</g>
</svg>
